# xmcd
#
# Track frame offsets:
#	150
#	13834
#	31446
#	48192
#	51492
#	67857
#	81455
#	90905
#	108420
#	132164
#	139589
#	153149
#	170051
#	177553
#	187545
#	198201
#	209011
#
# Disc length: 2987 seconds
#
# Revision: 0
# Processed by: cddbd v1.5.2PL0 Copyright (c) Steve Scherf et al.
# Submitted via: EZCDAudioConverter 2.1.7.1
#
DISCID=e30ba911
DTITLE=Whyte Horses - Pop Or Not
DYEAR=1900
DGENRE=
TTITLE0=Pop Or Not
TTITLE1=The Snowfalls
TTITLE2=Promise I Do
TTITLE3=Relance II
TTITLE4=Peach Tree Street
TTITLE5=La Couleur Originelle
TTITLE6=She Owns The World
TTITLE7=When I Was A Scout
TTITLE8=Elusive Mister Jimmy
TTITLE9=The Other Half Of The Sky
TTITLE10=Wedding Song
TTITLE11=Alone At Last
TTITLE12=The Dream Before
TTITLE13=Astrologie Siderale
TTITLE14=Back To Earth
TTITLE15=Feels Like Somethings Changing
TTITLE16=Natures Mistakes
EXTD=
EXTT0=
EXTT1=
EXTT2=
EXTT3=
EXTT4=
EXTT5=
EXTT6=
EXTT7=
EXTT8=
EXTT9=
EXTT10=
EXTT11=
EXTT12=
EXTT13=
EXTT14=
EXTT15=
EXTT16=
PLAYORDER=
